<mxfile host="app.diagrams.net" agent="Mozilla/5.0 (Windows NT 10.0; Win64; x64) AppleWebKit/537.36 (KHTML, like Gecko) Chrome/128.0.0.0 Safari/537.36 Edg/128.0.0.0" version="24.7.14">
  <diagram id="C5RBs43oDa-KdzZeNtuy" name="Page-1">
    <mxGraphModel dx="1638" dy="858" grid="1" gridSize="10" guides="1" tooltips="1" connect="1" arrows="1" fold="1" page="1" pageScale="1" pageWidth="827" pageHeight="1169" math="0" shadow="0">
      <root>
        <mxCell id="WIyWlLk6GJQsqaUBKTNV-0" />
        <mxCell id="WIyWlLk6GJQsqaUBKTNV-1" parent="WIyWlLk6GJQsqaUBKTNV-0" />
        <mxCell id="zobNE9UnBBPuIwP9HheT-4" value="Start" style="ellipse;whiteSpace=wrap;html=1;" vertex="1" parent="WIyWlLk6GJQsqaUBKTNV-1">
          <mxGeometry x="50" y="40" width="120" height="80" as="geometry" />
        </mxCell>
        <mxCell id="zobNE9UnBBPuIwP9HheT-5" value="Login" style="rounded=1;whiteSpace=wrap;html=1;" vertex="1" parent="WIyWlLk6GJQsqaUBKTNV-1">
          <mxGeometry x="210" y="50" width="120" height="60" as="geometry" />
        </mxCell>
        <mxCell id="zobNE9UnBBPuIwP9HheT-6" value="Redirect To Dashboard" style="rounded=1;whiteSpace=wrap;html=1;" vertex="1" parent="WIyWlLk6GJQsqaUBKTNV-1">
          <mxGeometry x="370" y="50" width="120" height="60" as="geometry" />
        </mxCell>
        <mxCell id="zobNE9UnBBPuIwP9HheT-7" value="Actions" style="rhombus;whiteSpace=wrap;html=1;" vertex="1" parent="WIyWlLk6GJQsqaUBKTNV-1">
          <mxGeometry x="560" y="40" width="80" height="80" as="geometry" />
        </mxCell>
        <mxCell id="zobNE9UnBBPuIwP9HheT-43" style="edgeStyle=orthogonalEdgeStyle;rounded=0;orthogonalLoop=1;jettySize=auto;html=1;" edge="1" parent="WIyWlLk6GJQsqaUBKTNV-1" source="zobNE9UnBBPuIwP9HheT-9" target="zobNE9UnBBPuIwP9HheT-34">
          <mxGeometry relative="1" as="geometry" />
        </mxCell>
        <mxCell id="zobNE9UnBBPuIwP9HheT-9" value="Manage Consumable Supplies" style="rounded=1;whiteSpace=wrap;html=1;" vertex="1" parent="WIyWlLk6GJQsqaUBKTNV-1">
          <mxGeometry x="50" y="210" width="170" height="60" as="geometry" />
        </mxCell>
        <mxCell id="zobNE9UnBBPuIwP9HheT-10" value="Manage Properties" style="rounded=1;whiteSpace=wrap;html=1;" vertex="1" parent="WIyWlLk6GJQsqaUBKTNV-1">
          <mxGeometry x="20" y="950" width="120" height="60" as="geometry" />
        </mxCell>
        <mxCell id="zobNE9UnBBPuIwP9HheT-11" value="Manage Reports" style="rounded=1;whiteSpace=wrap;html=1;" vertex="1" parent="WIyWlLk6GJQsqaUBKTNV-1">
          <mxGeometry x="20" y="1040" width="120" height="60" as="geometry" />
        </mxCell>
        <mxCell id="zobNE9UnBBPuIwP9HheT-12" value="Manage Custodians" style="rounded=1;whiteSpace=wrap;html=1;" vertex="1" parent="WIyWlLk6GJQsqaUBKTNV-1">
          <mxGeometry x="550" y="1610" width="120" height="60" as="geometry" />
        </mxCell>
        <mxCell id="zobNE9UnBBPuIwP9HheT-13" value="Manage Employee" style="rounded=1;whiteSpace=wrap;html=1;" vertex="1" parent="WIyWlLk6GJQsqaUBKTNV-1">
          <mxGeometry x="394" y="1610" width="120" height="60" as="geometry" />
        </mxCell>
        <mxCell id="zobNE9UnBBPuIwP9HheT-14" value="Manage Users" style="rounded=1;whiteSpace=wrap;html=1;" vertex="1" parent="WIyWlLk6GJQsqaUBKTNV-1">
          <mxGeometry x="90" y="1610" width="120" height="60" as="geometry" />
        </mxCell>
        <mxCell id="zobNE9UnBBPuIwP9HheT-15" value="Manage Colleges and Offices" style="rounded=1;whiteSpace=wrap;html=1;" vertex="1" parent="WIyWlLk6GJQsqaUBKTNV-1">
          <mxGeometry x="240" y="1610" width="120" height="60" as="geometry" />
        </mxCell>
        <mxCell id="zobNE9UnBBPuIwP9HheT-27" value="" style="group" vertex="1" connectable="0" parent="WIyWlLk6GJQsqaUBKTNV-1">
          <mxGeometry x="90" y="1720" width="570" height="595" as="geometry" />
        </mxCell>
        <mxCell id="zobNE9UnBBPuIwP9HheT-26" value="" style="rounded=0;whiteSpace=wrap;html=1;" vertex="1" parent="zobNE9UnBBPuIwP9HheT-27">
          <mxGeometry width="570" height="595" as="geometry" />
        </mxCell>
        <mxCell id="zobNE9UnBBPuIwP9HheT-16" value="Manage Settings" style="rounded=1;whiteSpace=wrap;html=1;" vertex="1" parent="zobNE9UnBBPuIwP9HheT-27">
          <mxGeometry x="20" y="40" width="120" height="60" as="geometry" />
        </mxCell>
        <mxCell id="zobNE9UnBBPuIwP9HheT-17" value="Actions" style="rhombus;whiteSpace=wrap;html=1;" vertex="1" parent="zobNE9UnBBPuIwP9HheT-27">
          <mxGeometry x="230" y="120" width="80" height="80" as="geometry" />
        </mxCell>
        <mxCell id="zobNE9UnBBPuIwP9HheT-18" value="Manage Consumable Supply Categories" style="rounded=1;whiteSpace=wrap;html=1;" vertex="1" parent="zobNE9UnBBPuIwP9HheT-27">
          <mxGeometry x="140" y="290" width="120" height="60" as="geometry" />
        </mxCell>
        <mxCell id="zobNE9UnBBPuIwP9HheT-19" value="Manage Property Categories" style="rounded=1;whiteSpace=wrap;html=1;" vertex="1" parent="zobNE9UnBBPuIwP9HheT-27">
          <mxGeometry x="140" y="380" width="120" height="60" as="geometry" />
        </mxCell>
        <mxCell id="zobNE9UnBBPuIwP9HheT-20" value="Manage Property Classifications" style="rounded=1;whiteSpace=wrap;html=1;" vertex="1" parent="zobNE9UnBBPuIwP9HheT-27">
          <mxGeometry x="280" y="380" width="120" height="60" as="geometry" />
        </mxCell>
        <mxCell id="zobNE9UnBBPuIwP9HheT-21" value="Manage Property Models" style="rounded=1;whiteSpace=wrap;html=1;" vertex="1" parent="zobNE9UnBBPuIwP9HheT-27">
          <mxGeometry x="420" y="380" width="120" height="60" as="geometry" />
        </mxCell>
        <mxCell id="zobNE9UnBBPuIwP9HheT-22" value="Manage Suppliers" style="rounded=1;whiteSpace=wrap;html=1;" vertex="1" parent="zobNE9UnBBPuIwP9HheT-27">
          <mxGeometry x="140" y="470" width="120" height="60" as="geometry" />
        </mxCell>
        <mxCell id="zobNE9UnBBPuIwP9HheT-23" value="Manage Funds" style="rounded=1;whiteSpace=wrap;html=1;" vertex="1" parent="zobNE9UnBBPuIwP9HheT-27">
          <mxGeometry x="280" y="470" width="120" height="60" as="geometry" />
        </mxCell>
        <mxCell id="zobNE9UnBBPuIwP9HheT-24" value="Manage IAR" style="rounded=1;whiteSpace=wrap;html=1;" vertex="1" parent="zobNE9UnBBPuIwP9HheT-27">
          <mxGeometry x="420" y="470" width="120" height="60" as="geometry" />
        </mxCell>
        <mxCell id="zobNE9UnBBPuIwP9HheT-28" value="Manage User Items" style="rounded=1;whiteSpace=wrap;html=1;" vertex="1" parent="WIyWlLk6GJQsqaUBKTNV-1">
          <mxGeometry x="90" y="2350" width="120" height="60" as="geometry" />
        </mxCell>
        <mxCell id="zobNE9UnBBPuIwP9HheT-29" value="View Logs" style="rounded=1;whiteSpace=wrap;html=1;" vertex="1" parent="WIyWlLk6GJQsqaUBKTNV-1">
          <mxGeometry x="20" y="1120" width="120" height="60" as="geometry" />
        </mxCell>
        <mxCell id="zobNE9UnBBPuIwP9HheT-30" value="Search Property" style="rounded=1;whiteSpace=wrap;html=1;" vertex="1" parent="WIyWlLk6GJQsqaUBKTNV-1">
          <mxGeometry x="170" y="950" width="120" height="60" as="geometry" />
        </mxCell>
        <mxCell id="zobNE9UnBBPuIwP9HheT-34" value="Actions" style="rhombus;whiteSpace=wrap;html=1;" vertex="1" parent="WIyWlLk6GJQsqaUBKTNV-1">
          <mxGeometry x="280" y="200" width="80" height="80" as="geometry" />
        </mxCell>
        <mxCell id="zobNE9UnBBPuIwP9HheT-48" value="" style="group" vertex="1" connectable="0" parent="WIyWlLk6GJQsqaUBKTNV-1">
          <mxGeometry x="54" y="330" width="800" height="250" as="geometry" />
        </mxCell>
        <mxCell id="zobNE9UnBBPuIwP9HheT-46" value="Consumable Supply" style="rounded=0;whiteSpace=wrap;html=1;align=left;verticalAlign=top;" vertex="1" parent="zobNE9UnBBPuIwP9HheT-48">
          <mxGeometry width="800" height="220" as="geometry" />
        </mxCell>
        <mxCell id="zobNE9UnBBPuIwP9HheT-36" value="Add Consumable Supply" style="rounded=1;whiteSpace=wrap;html=1;" vertex="1" parent="zobNE9UnBBPuIwP9HheT-48">
          <mxGeometry x="175" y="45" width="120" height="60" as="geometry" />
        </mxCell>
        <mxCell id="zobNE9UnBBPuIwP9HheT-40" value="View Consumable Supply Details" style="rounded=1;whiteSpace=wrap;html=1;" vertex="1" parent="zobNE9UnBBPuIwP9HheT-48">
          <mxGeometry x="25" y="45" width="120" height="60" as="geometry" />
        </mxCell>
        <mxCell id="zobNE9UnBBPuIwP9HheT-42" value="Edit Consumable Supply Details" style="rounded=1;whiteSpace=wrap;html=1;" vertex="1" parent="zobNE9UnBBPuIwP9HheT-48">
          <mxGeometry x="335" y="45" width="120" height="60" as="geometry" />
        </mxCell>
        <mxCell id="zobNE9UnBBPuIwP9HheT-44" value="Add Stock Consumable Supply&amp;nbsp;" style="rounded=1;whiteSpace=wrap;html=1;" vertex="1" parent="zobNE9UnBBPuIwP9HheT-48">
          <mxGeometry x="495" y="45" width="120" height="60" as="geometry" />
        </mxCell>
        <mxCell id="zobNE9UnBBPuIwP9HheT-45" value="Add to Cart" style="rounded=1;whiteSpace=wrap;html=1;" vertex="1" parent="zobNE9UnBBPuIwP9HheT-48">
          <mxGeometry x="655" y="45" width="120" height="60" as="geometry" />
        </mxCell>
        <mxCell id="zobNE9UnBBPuIwP9HheT-54" value="Issue Consumable Supply to Custodian" style="rounded=1;whiteSpace=wrap;html=1;" vertex="1" parent="zobNE9UnBBPuIwP9HheT-48">
          <mxGeometry x="25" y="130" width="120" height="60" as="geometry" />
        </mxCell>
        <mxCell id="zobNE9UnBBPuIwP9HheT-63" value="View Consumable Supply Inventory" style="rounded=1;whiteSpace=wrap;html=1;" vertex="1" parent="zobNE9UnBBPuIwP9HheT-48">
          <mxGeometry x="175" y="130" width="120" height="60" as="geometry" />
        </mxCell>
        <mxCell id="zobNE9UnBBPuIwP9HheT-82" value="Print Request and Issue Slip (RIS)" style="rounded=1;whiteSpace=wrap;html=1;" vertex="1" parent="zobNE9UnBBPuIwP9HheT-48">
          <mxGeometry x="335" y="130" width="120" height="60" as="geometry" />
        </mxCell>
        <mxCell id="zobNE9UnBBPuIwP9HheT-93" value="Re-print Request and Issue Slip (RIS)" style="rounded=1;whiteSpace=wrap;html=1;" vertex="1" parent="zobNE9UnBBPuIwP9HheT-48">
          <mxGeometry x="495" y="130" width="120" height="60" as="geometry" />
        </mxCell>
        <mxCell id="zobNE9UnBBPuIwP9HheT-94" value="Delete Request and Issue Slip (RIS)" style="rounded=1;whiteSpace=wrap;html=1;" vertex="1" parent="zobNE9UnBBPuIwP9HheT-48">
          <mxGeometry x="655" y="130" width="120" height="60" as="geometry" />
        </mxCell>
        <mxCell id="zobNE9UnBBPuIwP9HheT-83" value="" style="group" vertex="1" connectable="0" parent="WIyWlLk6GJQsqaUBKTNV-1">
          <mxGeometry x="54" y="570" width="800" height="250" as="geometry" />
        </mxCell>
        <mxCell id="zobNE9UnBBPuIwP9HheT-84" value="Consumable Supply (Supplemental Purchase)" style="rounded=0;whiteSpace=wrap;html=1;align=left;verticalAlign=top;" vertex="1" parent="zobNE9UnBBPuIwP9HheT-83">
          <mxGeometry width="800" height="220" as="geometry" />
        </mxCell>
        <mxCell id="zobNE9UnBBPuIwP9HheT-85" value="Edit Consumable Supply Details" style="rounded=1;whiteSpace=wrap;html=1;" vertex="1" parent="zobNE9UnBBPuIwP9HheT-83">
          <mxGeometry x="175" y="45" width="120" height="60" as="geometry" />
        </mxCell>
        <mxCell id="zobNE9UnBBPuIwP9HheT-86" value="Add Consumable Supply Stock (Emergency Purchase)" style="rounded=1;whiteSpace=wrap;html=1;" vertex="1" parent="zobNE9UnBBPuIwP9HheT-83">
          <mxGeometry x="25" y="45" width="120" height="60" as="geometry" />
        </mxCell>
        <mxCell id="zobNE9UnBBPuIwP9HheT-87" value="Add to Cart" style="rounded=1;whiteSpace=wrap;html=1;" vertex="1" parent="zobNE9UnBBPuIwP9HheT-83">
          <mxGeometry x="335" y="45" width="120" height="60" as="geometry" />
        </mxCell>
        <mxCell id="zobNE9UnBBPuIwP9HheT-88" value="Issue Consumable Supply to Custodian" style="rounded=1;whiteSpace=wrap;html=1;" vertex="1" parent="zobNE9UnBBPuIwP9HheT-83">
          <mxGeometry x="495" y="45" width="120" height="60" as="geometry" />
        </mxCell>
        <mxCell id="zobNE9UnBBPuIwP9HheT-89" value="View Consumable Supply Inventory" style="rounded=1;whiteSpace=wrap;html=1;" vertex="1" parent="zobNE9UnBBPuIwP9HheT-83">
          <mxGeometry x="655" y="45" width="120" height="60" as="geometry" />
        </mxCell>
        <mxCell id="zobNE9UnBBPuIwP9HheT-90" value="Print Request and Issue Slip (RIS)" style="rounded=1;whiteSpace=wrap;html=1;" vertex="1" parent="zobNE9UnBBPuIwP9HheT-83">
          <mxGeometry x="25" y="130" width="120" height="60" as="geometry" />
        </mxCell>
        <mxCell id="zobNE9UnBBPuIwP9HheT-95" value="Re-print Request and Issue Slip (RIS)" style="rounded=1;whiteSpace=wrap;html=1;" vertex="1" parent="zobNE9UnBBPuIwP9HheT-83">
          <mxGeometry x="170" y="130" width="120" height="60" as="geometry" />
        </mxCell>
        <mxCell id="zobNE9UnBBPuIwP9HheT-120" value="Delete Request and Issue Slip (RIS)" style="rounded=1;whiteSpace=wrap;html=1;" vertex="1" parent="zobNE9UnBBPuIwP9HheT-83">
          <mxGeometry x="335" y="130" width="120" height="60" as="geometry" />
        </mxCell>
      </root>
    </mxGraphModel>
  </diagram>
</mxfile>
